<svg width="100%" height="100%" id="svg" viewBox="0 0 1440 590" xmlns="http://www.w3.org/2000/svg"
    class="transition duration-300 ease-in-out delay-150">
        <style>
        .svg_white {
            fill: #ffffff;
        }

        @media (prefers-color-scheme: dark) {
            .svg_white {
                fill: #abb8c3;
            }
        }
    </style>
    <path
        d="M 0,600 L 0,90 C 65.22488038277513,60.30622009569378 130.44976076555025,30.612440191387563 235,56 C 339.55023923444975,81.38755980861244 483.42583732057415,161.85645933014354 580,194 C 676.5741626794259,226.14354066985646 725.846889952153,209.96172248803828 830,218 C 934.153110047847,226.03827751196172 1093.1866028708134,258.29665071770336 1204,291 C 1314.8133971291866,323.70334928229664 1377.4066985645932,356.8516746411483 1440,390 L 1440,600 L 0,600 Z"
        stroke="none" stroke-width="0" class="svg_white" fill-opacity="0.265"
        class="transition-all duration-300 ease-in-out delay-150 path-0"></path>
    <path
        d="M 0,600 L 0,210 C 114.35406698564591,178.11483253588517 228.70813397129183,146.22966507177034 318,171 C 407.29186602870817,195.77033492822966 471.52153110047857,277.1961722488038 563,316 C 654.4784688995214,354.8038277511962 773.2057416267942,350.98564593301444 881,355 C 988.7942583732058,359.01435406698556 1085.6555023923447,370.8612440191387 1177,398 C 1268.3444976076553,425.1387559808613 1354.1722488038276,467.56937799043067 1440,510 L 1440,600 L 0,600 Z"
        stroke="none" stroke-width="0" class="svg_white" fill-opacity="0.4"
        class="transition-all duration-300 ease-in-out delay-150 path-1"></path>
    <path
        d="M 0,600 L 0,330 C 88.10526315789477,307.2631578947369 176.21052631578954,284.5263157894737 265,287 C 353.78947368421046,289.4736842105263 443.26315789473676,317.1578947368421 555,367 C 666.7368421052632,416.8421052631579 800.7368421052632,488.8421052631579 907,513 C 1013.2631578947368,537.1578947368421 1091.7894736842106,513.4736842105264 1176,525 C 1260.2105263157894,536.5263157894736 1350.1052631578946,583.2631578947369 1440,630 L 1440,600 L 0,600 Z"
        stroke="none" stroke-width="0" class="svg_white" fill-opacity="0.53"
        class="transition-all duration-300 ease-in-out delay-150 path-2"></path>
    <path
        d="M 0,600 L 0,450 C 74.18181818181822,445.87559808612446 148.36363636363643,441.75119617224885 247,456 C 345.63636363636357,470.24880382775115 468.72727272727263,502.87081339712915 582,540 C 695.2727272727274,577.1291866028708 798.7272727272729,618.7655502392345 896,632 C 993.2727272727271,645.2344497607655 1084.3636363636363,630.0669856459331 1174,645 C 1263.6363636363637,659.9330143540669 1351.818181818182,704.9665071770335 1440,750 L 1440,600 L 0,600 Z"
        stroke="none" stroke-width="0" class="svg_white" fill-opacity="1"
        class="transition-all duration-300 ease-in-out delay-150 path-3"></path>
</svg>
